<svg width="101" height="100" viewBox="0 0 101 100" fill="none" xmlns="http://www.w3.org/2000/svg">
<path d="M63 16.6666V45.8333H22.0417L17.1667 50.7083V16.6666H63ZM67.1667 8.33325H13C11.895 8.33325 10.8352 8.77224 10.0538 9.55364C9.27236 10.335 8.83337 11.3948 8.83337 12.4999V70.8332L25.5 54.1666H67.1667C68.2718 54.1666 69.3316 53.7276 70.113 52.9462C70.8944 52.1648 71.3334 51.105 71.3334 49.9999V12.4999C71.3334 11.3948 70.8944 10.335 70.113 9.55364C69.3316 8.77224 68.2718 8.33325 67.1667 8.33325ZM88 24.9999H79.6667V62.4999H25.5V70.8332C25.5 71.9383 25.939 72.9981 26.7204 73.7795C27.5018 74.5609 28.5616 74.9999 29.6667 74.9999H75.5L92.1667 91.6666V29.1666C92.1667 28.0615 91.7277 27.0017 90.9463 26.2203C90.1649 25.4389 89.1051 24.9999 88 24.9999Z" fill="black"/>
</svg>
