<svg width="50" height="50" viewBox="0 0 50 50" fill="none" xmlns="http://www.w3.org/2000/svg">
<path fill-rule="evenodd" clip-rule="evenodd" d="M4.95293 24.7647C4.95329 20.952 6.05376 17.2205 8.12229 14.0178C10.1908 10.815 13.1395 8.27721 16.6146 6.70878C20.0897 5.14036 23.9436 4.60797 27.7137 5.1755C31.4839 5.74303 35.0102 7.38637 37.8696 9.90833C40.729 12.4303 42.7999 15.7237 43.8339 19.3935C44.8679 23.0632 44.8211 26.9534 43.699 30.5972C42.5769 34.241 40.4273 37.4836 37.508 39.936C34.5888 42.3883 31.0239 43.9463 27.2411 44.4229V29.7176H32.1941C32.8509 29.7176 33.4808 29.4567 33.9452 28.9923C34.4096 28.5278 34.6705 27.8979 34.6705 27.2411C34.6705 26.5843 34.4096 25.9544 33.9452 25.49C33.4808 25.0256 32.8509 24.7647 32.1941 24.7647H27.2411V19.8117C27.2411 19.1549 27.5021 18.525 27.9665 18.0606C28.4309 17.5962 29.0608 17.3353 29.7176 17.3353H30.9558C31.6126 17.3353 32.2425 17.0744 32.707 16.6099C33.1714 16.1455 33.4323 15.5156 33.4323 14.8588C33.4323 14.202 33.1714 13.5721 32.707 13.1077C32.2425 12.6433 31.6126 12.3823 30.9558 12.3823H29.7176C27.7472 12.3823 25.8575 13.1651 24.4642 14.5584C23.0709 15.9516 22.2882 17.8413 22.2882 19.8117V24.7647H17.3353C16.6785 24.7647 16.0486 25.0256 15.5841 25.49C15.1197 25.9544 14.8588 26.5843 14.8588 27.2411C14.8588 27.8979 15.1197 28.5278 15.5841 28.9923C16.0486 29.4567 16.6785 29.7176 17.3353 29.7176H22.2882V44.4229C17.5002 43.8196 13.0971 41.4896 9.90526 37.8701C6.71345 34.2505 4.95248 29.5905 4.95293 24.7647ZM24.7647 49.5293C38.4422 49.5293 49.5293 38.4422 49.5293 24.7647C49.5293 11.0871 38.4422 0 24.7647 0C11.0871 0 0 11.0871 0 24.7647C0 38.4422 11.0871 49.5293 24.7647 49.5293Z" fill="#52B7C1"/>
</svg>
