<svg width="101" height="100" viewBox="0 0 101 100" fill="none" xmlns="http://www.w3.org/2000/svg">
<path d="M70.5 13.75C70.5 12.7554 70.8951 11.8016 71.5983 11.0983C72.3016 10.3951 73.2554 10 74.25 10H86.75C87.7445 10 88.6984 10.3951 89.4016 11.0983C90.1049 11.8016 90.5 12.7554 90.5 13.75V26.25C90.5 27.2446 90.1049 28.1984 89.4016 28.9017C88.6984 29.6049 87.7445 30 86.75 30C85.7554 30 84.8016 29.6049 84.0983 28.9017C83.3951 28.1984 83 27.2446 83 26.25V22.8L60.65 45.15C59.9468 45.8522 58.9937 46.2467 58 46.2467C57.0062 46.2467 56.0531 45.8522 55.35 45.15L43 32.8L21.9 53.9C21.5567 54.2684 21.1427 54.5639 20.6827 54.7689C20.2227 54.9739 19.7261 55.0841 19.2226 55.093C18.7191 55.1018 18.2189 55.0092 17.752 54.8206C17.285 54.632 16.8609 54.3513 16.5048 53.9952C16.1487 53.6391 15.868 53.2149 15.6794 52.748C15.4908 52.281 15.3981 51.7809 15.407 51.2774C15.4159 50.7739 15.5261 50.2773 15.7311 49.8173C15.936 49.3573 16.2315 48.9433 16.6 48.6L40.35 24.85C41.0531 24.1477 42.0062 23.7533 43 23.7533C43.9937 23.7533 44.9468 24.1477 45.65 24.85L58 37.2L77.7 17.5H74.25C73.2554 17.5 72.3016 17.1049 71.5983 16.4017C70.8951 15.6984 70.5 14.7446 70.5 13.75ZM19.25 70C20.2445 70 21.1984 70.3951 21.9016 71.0984C22.6049 71.8016 23 72.7554 23 73.75V86.25C23 87.2446 22.6049 88.1984 21.9016 88.9017C21.1984 89.6049 20.2445 90 19.25 90C18.2554 90 17.3016 89.6049 16.5983 88.9017C15.8951 88.1984 15.5 87.2446 15.5 86.25V73.75C15.5 72.7554 15.8951 71.8016 16.5983 71.0984C17.3016 70.3951 18.2554 70 19.25 70ZM43 58.75C43 57.7554 42.6049 56.8016 41.9016 56.0984C41.1984 55.3951 40.2445 55 39.25 55C38.2554 55 37.3016 55.3951 36.5983 56.0984C35.8951 56.8016 35.5 57.7554 35.5 58.75V86.25C35.5 87.2446 35.8951 88.1984 36.5983 88.9017C37.3016 89.6049 38.2554 90 39.25 90C40.2445 90 41.1984 89.6049 41.9016 88.9017C42.6049 88.1984 43 87.2446 43 86.25V58.75ZM59.25 65C60.2445 65 61.1984 65.3951 61.9016 66.0984C62.6049 66.8016 63 67.7554 63 68.75V86.25C63 87.2446 62.6049 88.1984 61.9016 88.9017C61.1984 89.6049 60.2445 90 59.25 90C58.2554 90 57.3016 89.6049 56.5983 88.9017C55.8951 88.1984 55.5 87.2446 55.5 86.25V68.75C55.5 67.7554 55.8951 66.8016 56.5983 66.0984C57.3016 65.3951 58.2554 65 59.25 65ZM83 48.75C83 47.7554 82.6049 46.8016 81.9016 46.0984C81.1984 45.3951 80.2445 45 79.25 45C78.2554 45 77.3016 45.3951 76.5983 46.0984C75.8951 46.8016 75.5 47.7554 75.5 48.75V86.25C75.5 87.2446 75.8951 88.1984 76.5983 88.9017C77.3016 89.6049 78.2554 90 79.25 90C80.2445 90 81.1984 89.6049 81.9016 88.9017C82.6049 88.1984 83 87.2446 83 86.25V48.75Z" fill="black"/>
</svg>
