<svg width="100" height="100" viewBox="0 0 100 100" fill="none" xmlns="http://www.w3.org/2000/svg">
<path d="M21.1667 91.6666V83.3333H46.1667V66.6666H37.8333C32.0694 66.6666 27.1562 64.6353 23.0937 60.5728C19.0312 56.5103 17 51.5971 17 45.8333C17 41.6666 18.1458 37.8298 20.4375 34.3228C22.7292 30.8159 25.8194 28.2638 29.7083 26.6666C30.3333 21.4583 32.6076 17.1006 36.5312 13.5937C40.4549 10.0867 45.0556 8.33325 50.3333 8.33325C55.6111 8.33325 60.2118 10.0867 64.1354 13.5937C68.059 17.1006 70.3333 21.4583 70.9583 26.6666C74.8472 28.2638 77.9375 30.8159 80.2292 34.3228C82.5208 37.8298 83.6667 41.6666 83.6667 45.8333C83.6667 51.5971 81.6354 56.5103 77.5729 60.5728C73.5104 64.6353 68.5972 66.6666 62.8333 66.6666H54.5V83.3333H79.5V91.6666H21.1667ZM37.8333 58.3333H62.8333C66.3056 58.3333 69.2569 57.118 71.6875 54.6874C74.1181 52.2569 75.3333 49.3055 75.3333 45.8333C75.3333 43.3333 74.6215 41.0416 73.1979 38.9583C71.7743 36.8749 69.9167 35.3471 67.625 34.3749L63.25 32.4999L62.625 27.7083C62.2083 24.5833 60.8368 21.9617 58.5104 19.8437C56.184 17.7256 53.4583 16.6666 50.3333 16.6666C47.2083 16.6666 44.4826 17.7256 42.1562 19.8437C39.8299 21.9617 38.4583 24.5833 38.0417 27.7083L37.4167 32.4999L33.0417 34.3749C30.75 35.3471 28.8924 36.8749 27.4688 38.9583C26.0451 41.0416 25.3333 43.3333 25.3333 45.8333C25.3333 49.3055 26.5486 52.2569 28.9792 54.6874C31.4097 57.118 34.3611 58.3333 37.8333 58.3333Z" fill="black"/>
</svg>
