<svg width="50" height="50" viewBox="0 0 50 50" fill="none" xmlns="http://www.w3.org/2000/svg">
<g clip-path="url(#clip0_68_88)">
<path fill-rule="evenodd" clip-rule="evenodd" d="M25.0002 13.6768C21.9973 13.6768 19.1174 14.8697 16.994 16.993C14.8706 19.1164 13.6777 21.9963 13.6777 24.9992C13.6777 28.0021 14.8706 30.882 16.994 33.0054C19.1174 35.1288 21.9973 36.3217 25.0002 36.3217C28.0031 36.3217 30.883 35.1288 33.0064 33.0054C35.1298 30.882 36.3227 28.0021 36.3227 24.9992C36.3227 21.9963 35.1298 19.1164 33.0064 16.993C30.883 14.8697 28.0031 13.6768 25.0002 13.6768ZM18.2067 24.9992C18.2067 26.801 18.9225 28.5289 20.1965 29.8029C21.4705 31.077 23.1985 31.7927 25.0002 31.7927C26.8019 31.7927 28.5299 31.077 29.8039 29.8029C31.0779 28.5289 31.7937 26.801 31.7937 24.9992C31.7937 23.1975 31.0779 21.4695 29.8039 20.1955C28.5299 18.9215 26.8019 18.2057 25.0002 18.2057C23.1985 18.2057 21.4705 18.9215 20.1965 20.1955C18.9225 21.4695 18.2067 23.1975 18.2067 24.9992Z" fill="#52B7C1"/>
<path d="M38.5872 9.14746C37.9867 9.14746 37.4107 9.38604 36.986 9.81072C36.5613 10.2354 36.3228 10.8114 36.3228 11.412C36.3228 12.0125 36.5613 12.5885 36.986 13.0132C37.4107 13.4379 37.9867 13.6764 38.5872 13.6764C39.1878 13.6764 39.7638 13.4379 40.1885 13.0132C40.6132 12.5885 40.8517 12.0125 40.8517 11.412C40.8517 10.8114 40.6132 10.2354 40.1885 9.81072C39.7638 9.38604 39.1878 9.14746 38.5872 9.14746Z" fill="#52B7C1"/>
<path fill-rule="evenodd" clip-rule="evenodd" d="M9.14879 0.0898438C6.74647 0.0898438 4.44254 1.04416 2.74384 2.74286C1.04514 4.44156 0.0908203 6.74549 0.0908203 9.14781V40.8507C0.0908203 43.253 1.04514 45.557 2.74384 47.2557C4.44254 48.9544 6.74647 49.9087 9.14879 49.9087H40.8517C43.254 49.9087 45.5579 48.9544 47.2566 47.2557C48.9553 45.557 49.9097 43.253 49.9097 40.8507V9.14781C49.9097 6.74549 48.9553 4.44156 47.2566 2.74286C45.5579 1.04416 43.254 0.0898438 40.8517 0.0898438H9.14879ZM40.8517 4.61883H9.14879C7.94763 4.61883 6.79566 5.09599 5.94631 5.94534C5.09697 6.79469 4.61981 7.94665 4.61981 9.14781V40.8507C4.61981 42.0519 5.09697 43.2038 5.94631 44.0532C6.79566 44.9025 7.94763 45.3797 9.14879 45.3797H40.8517C42.0529 45.3797 43.2048 44.9025 44.0542 44.0532C44.9035 43.2038 45.3807 42.0519 45.3807 40.8507V9.14781C45.3807 7.94665 44.9035 6.79469 44.0542 5.94534C43.2048 5.09599 42.0529 4.61883 40.8517 4.61883Z" fill="#52B7C1"/>
</g>
<defs>
<clipPath id="clip0_68_88">
<rect width="50" height="50" fill="white"/>
</clipPath>
</defs>
</svg>
