<svg width="101" height="100" viewBox="0 0 101 100" fill="none" xmlns="http://www.w3.org/2000/svg">
<path d="M54.6667 79.1666V32.6249C58.2084 31.3749 61.0417 28.5416 62.2917 24.9999H75.5L63.9167 52.0416C63.2084 53.6666 62.9584 55.5416 63.4584 57.2499C65.0834 62.6666 70.7917 66.6666 77.5834 66.6666C84.375 66.6666 90.125 62.6666 91.7084 57.2499C92.2084 55.5416 91.9584 53.6666 91.25 52.0416L79.6667 24.9999H83.8334C86.125 24.9999 88 23.1249 88 20.8333C88 18.5416 86.125 16.6666 83.8334 16.6666H62.2917C60.5834 11.7916 55.9584 8.33325 50.5 8.33325C45.0417 8.33325 40.4167 11.7916 38.7084 16.6666H17.1667C14.875 16.6666 13 18.5416 13 20.8333C13 23.1249 14.875 24.9999 17.1667 24.9999H21.3334L9.75004 52.0416C9.04171 53.6666 8.79171 55.5416 9.29171 57.2499C10.875 62.6666 16.625 66.6666 23.4167 66.6666C30.2084 66.6666 35.9584 62.6666 37.5417 57.2499C38.0417 55.5416 37.7917 53.6666 37.0834 52.0416L25.5 24.9999H38.7084C39.9584 28.5416 42.7917 31.3749 46.3334 32.6249V79.1666M46.3334 79.1666H13C10.7084 79.1666 8.83337 81.0416 8.83337 83.3333C8.83337 85.6249 10.7084 87.4999 13 87.4999H88C90.2917 87.4999 92.1667 85.6249 92.1667 83.3333C92.1667 81.0416 90.2917 79.1666 88 79.1666H54.6667M85.375 54.1666H69.7917L77.5834 35.9999L85.375 54.1666ZM31.2084 54.1666H15.625L23.4167 35.9999L31.2084 54.1666ZM50.5 24.9999C48.2084 24.9999 46.3334 23.1249 46.3334 20.8333C46.3334 18.5416 48.2084 16.6666 50.5 16.6666C52.7917 16.6666 54.6667 18.5416 54.6667 20.8333C54.6667 23.1249 52.7917 24.9999 50.5 24.9999Z" fill="black"/>
</svg>
