<svg width="43" height="50" viewBox="0 0 43 50" fill="none" xmlns="http://www.w3.org/2000/svg">
<g clip-path="url(#clip0_95_76)">
<path d="M41.0111 0.889648C41.4024 0.889648 41.7937 1.08782 41.9868 1.28345C42.0828 1.46369 42.1331 1.66481 42.1331 1.86907C42.1331 2.07333 42.0828 2.27444 41.9868 2.45469L26.5498 29.8175L36.3211 47.7951C36.4176 47.9757 36.4681 48.1773 36.4681 48.382C36.4681 48.5868 36.4176 48.7884 36.3211 48.9689C36.0519 49.2114 35.7051 49.3502 35.343 49.3602H28.3054C27.3297 49.3602 26.7454 48.5777 26.3541 47.9908L16.3872 29.815C16.9715 29.035 32.0223 2.2616 32.0223 2.2616C32.411 1.47908 32.9979 0.89473 33.9761 0.89473L41.0111 0.889648ZM11.6946 10.4679C12.6727 10.4679 13.2596 11.2504 13.6509 11.8348L18.5366 20.2392C18.1453 20.6305 10.9146 33.5268 10.9146 33.5268C10.5233 34.1163 9.93645 34.8988 8.9583 34.8988H2.12141C1.7601 34.8882 1.41433 34.7495 1.1458 34.5075C1.04928 34.327 0.998779 34.1254 0.998779 33.9206C0.998779 33.7159 1.04928 33.5143 1.1458 33.3338L8.37649 20.2392L3.68645 12.0329C3.58993 11.8524 3.53943 11.6508 3.53943 11.4461C3.53943 11.2413 3.58993 11.0397 3.68645 10.8592C3.95432 10.6178 4.29909 10.4791 4.65952 10.4679H11.6946Z" fill="#52B7C1"/>
</g>
<defs>
<clipPath id="clip0_95_76">
<rect width="42.6829" height="50" fill="white"/>
</clipPath>
</defs>
</svg>
